<svg width="42" height="42" viewBox="0 0 42 42" fill="none" xmlns="http://www.w3.org/2000/svg">
<path fill-rule="evenodd" clip-rule="evenodd" d="M5 7C5 4.79086 6.79086 3 9 3H26.2185C27.3525 3 28.4332 3.48129 29.1917 4.32414L35.9732 11.8591C36.6342 12.5936 37 13.5468 37 14.5349V35C37 37.2091 35.2091 39 33 39H9C6.79086 39 5 37.2091 5 35V7Z" fill="#FF3F53"/>
<g opacity="0.6">
<path fill-rule="evenodd" clip-rule="evenodd" d="M28 4.16281C28 3.75386 28.5043 3.56034 28.7779 3.86431L36.3298 12.2553C36.5882 12.5424 36.3844 13 35.9981 13H29.3386C28.5993 13 28 12.4007 28 11.6614V4.16281Z" fill="white"/>
</g>
<path d="M12.27 26.3281V19.3881H14.64C16.72 19.3881 17.37 20.0781 17.37 21.7481C17.37 23.5581 16.6 24.1881 14.64 24.1881H13.79V26.3281H12.27ZM13.79 22.9681H14.44C15.47 22.9681 15.82 22.6981 15.82 21.7781C15.82 20.8881 15.46 20.5881 14.44 20.5881H13.79V22.9681ZM18.6079 19.3881H20.9879C23.0279 19.3881 24.3679 19.9681 24.3679 22.8581C24.3679 25.5381 23.0279 26.3281 20.9879 26.3281H18.6079V19.3881ZM20.1279 25.0281H20.9079C22.1879 25.0281 22.7979 24.5481 22.7979 22.8581C22.7979 21.0681 22.1579 20.6681 20.9079 20.6681H20.1279V25.0281ZM29.9768 20.7081H27.2568V22.3181H29.7768V23.6281H27.2568V26.3281H25.7368V19.3881H29.9768V20.7081Z" fill="white"/>
</svg>
