<svg width="46" height="46" viewBox="0 0 46 46" fill="none" xmlns="http://www.w3.org/2000/svg">
<rect width="46" height="46" rx="14" fill="#5B6979" fill-opacity="0.1"/>
<rect x="14" y="14" width="18" height="17" rx="4" fill="#5B6979"/>
<path d="M19.7344 19.7476C19.3202 19.7476 18.9844 20.0833 18.9844 20.4976C18.9844 20.9118 19.3202 21.2476 19.7344 21.2476V19.7476ZM19.7344 21.2476H26.2344V19.7476H19.7344V21.2476Z" fill="white"/>
<path d="M26.2344 25.2476C26.6486 25.2476 26.9844 24.9118 26.9844 24.4976C26.9844 24.0833 26.6486 23.7476 26.2344 23.7476V25.2476ZM19.7344 25.2476H26.2344V23.7476H19.7344V25.2476Z" fill="white"/>
<rect x="23.6553" y="17.0122" width="5" height="1.60242" rx="0.801212" transform="rotate(42.8174 23.6553 17.0122)" fill="white"/>
<rect x="19.7344" y="23.4116" width="5" height="1.59972" rx="0.799858" transform="rotate(42.8174 19.7344 23.4116)" fill="white"/>
</svg> 