<svg t="1704001505355" class="icon" viewBox="0 0 1024 1024" version="1.1" xmlns="http://www.w3.org/2000/svg" p-id="1486" width="200" height="200"><path d="M204.8 762.514286H201.142857c-32.914286-7.314286-98.742857-38.4-98.742857-82.285715V243.2c0-47.542857 38.4-84.114286 84.114286-84.114286H786.285714c45.714286 0 84.114286 38.4 84.114286 84.114286v36.571429c0 5.485714-1.828571 10.971429-7.314286 14.628571-3.657143 3.657143-10.971429 5.485714-16.457143 3.657143-3.657143 0-7.314286-1.828571-10.971428-1.828572h-566.857143c-25.6 0-47.542857 21.942857-47.542857 47.542858v400.457142c0 5.485714-1.828571 10.971429-7.314286 14.628572 0 3.657143-5.485714 3.657143-9.142857 3.657143z m-18.285714-568.685715c-25.6 0-47.542857 21.942857-47.542857 47.542858v437.028571c0 12.8 23.771429 29.257143 47.542857 40.228571V343.771429c0-47.542857 38.4-84.114286 84.114285-84.114286h563.2v-16.457143c0-27.428571-21.942857-47.542857-47.542857-47.542857H186.514286z" fill="#ffffff" p-id="1487"></path><path d="M744.228571 486.4c-38.4 0-69.485714-31.085714-69.485714-69.485714 0-38.4 31.085714-67.657143 69.485714-67.657143 38.4 0 67.657143 31.085714 67.657143 67.657143 1.828571 38.4-29.257143 69.485714-67.657143 69.485714z m0-100.571429c-18.285714 0-32.914286 14.628571-32.914285 31.085715 0 18.285714 14.628571 32.914286 32.914285 32.914285s31.085714-14.628571 31.085715-32.914285c1.828571-16.457143-12.8-31.085714-31.085715-31.085715zM279.771429 764.342857c-5.485714 0-9.142857-1.828571-12.8-5.485714-7.314286-7.314286-7.314286-18.285714 0-25.6l104.228571-104.228572c7.314286-7.314286 18.285714-7.314286 25.6 0l82.285714 82.285715 179.2-179.2c5.485714-5.485714 16.457143-7.314286 23.771429-1.828572l181.028571 120.685715c9.142857 5.485714 10.971429 16.457143 5.485715 25.6-5.485714 9.142857-16.457143 10.971429-25.6 5.485714l-168.228572-111.542857-181.028571 181.028571c-7.314286 7.314286-18.285714 7.314286-25.6 0L384 667.428571l-91.428571 91.428572c-3.657143 3.657143-9.142857 5.485714-12.8 5.485714z" fill="#ffffff" p-id="1488"></path><path d="M837.485714 866.742857h-566.857143c-45.714286 0-84.114286-38.4-84.114285-85.942857V343.771429c0-47.542857 38.4-84.114286 84.114285-84.114286h566.857143c5.485714 0 12.8 0 20.114286 1.828571 38.4 9.142857 64 43.885714 64 82.285715v437.028571c0 47.542857-38.4 85.942857-84.114286 85.942857z m-566.857143-570.514286c-25.6 0-47.542857 21.942857-47.542857 47.542858v437.028571c0 27.428571 21.942857 49.371429 47.542857 49.371429h566.857143c25.6 0 47.542857-21.942857 47.542857-49.371429V343.771429c0-21.942857-14.628571-42.057143-36.571428-47.542858-3.657143 0-7.314286-1.828571-10.971429-1.828571h-566.857143z m9.142858 468.114286c-5.485714 0-9.142857-1.828571-12.8-5.485714-7.314286-7.314286-7.314286-18.285714 0-25.6l104.228571-104.228572c7.314286-7.314286 18.285714-7.314286 25.6 0l82.285714 82.285715 179.2-179.2c5.485714-5.485714 16.457143-7.314286 23.771429-1.828572l181.028571 120.685715c9.142857 5.485714 10.971429 16.457143 5.485715 25.6-5.485714 9.142857-16.457143 10.971429-25.6 5.485714l-168.228572-111.542857-181.028571 181.028571c-7.314286 7.314286-18.285714 7.314286-25.6 0L384 667.428571l-91.428571 91.428572c-3.657143 3.657143-9.142857 5.485714-12.8 5.485714z m464.457142-277.942857c-38.4 0-69.485714-31.085714-69.485714-69.485714 0-38.4 31.085714-67.657143 69.485714-67.657143 38.4 0 67.657143 31.085714 67.657143 67.657143 1.828571 38.4-29.257143 69.485714-67.657143 69.485714z m0-100.571429c-18.285714 0-32.914286 14.628571-32.914285 31.085715 0 18.285714 14.628571 32.914286 32.914285 32.914285s31.085714-14.628571 31.085715-32.914285c1.828571-16.457143-12.8-31.085714-31.085715-31.085715z" fill="#ffffff" p-id="1489"></path><path d="M744.228571 486.4c-38.4 0-69.485714-31.085714-69.485714-69.485714 0-38.4 31.085714-67.657143 69.485714-67.657143 38.4 0 67.657143 31.085714 67.657143 67.657143 1.828571 38.4-29.257143 69.485714-67.657143 69.485714z m0-100.571429c-18.285714 0-32.914286 14.628571-32.914285 31.085715 0 18.285714 14.628571 32.914286 32.914285 32.914285s31.085714-14.628571 31.085715-32.914285c1.828571-16.457143-12.8-31.085714-31.085715-31.085715zM279.771429 764.342857c-5.485714 0-9.142857-1.828571-12.8-5.485714-7.314286-7.314286-7.314286-18.285714 0-25.6l104.228571-104.228572c7.314286-7.314286 18.285714-7.314286 25.6 0l82.285714 82.285715 179.2-179.2c5.485714-5.485714 16.457143-7.314286 23.771429-1.828572l181.028571 120.685715c9.142857 5.485714 10.971429 16.457143 5.485715 25.6-5.485714 9.142857-16.457143 10.971429-25.6 5.485714l-168.228572-111.542857-181.028571 181.028571c-7.314286 7.314286-18.285714 7.314286-25.6 0L384 667.428571l-91.428571 91.428572c-3.657143 3.657143-9.142857 5.485714-12.8 5.485714z" fill="#ffffff" p-id="1490"></path><path d="M744.228571 486.4c-38.4 0-69.485714-31.085714-69.485714-69.485714 0-38.4 31.085714-67.657143 69.485714-67.657143 38.4 0 67.657143 31.085714 67.657143 67.657143 1.828571 38.4-29.257143 69.485714-67.657143 69.485714z m0-100.571429c-18.285714 0-32.914286 14.628571-32.914285 31.085715 0 18.285714 14.628571 32.914286 32.914285 32.914285s31.085714-14.628571 31.085715-32.914285c1.828571-16.457143-12.8-31.085714-31.085715-31.085715zM888.685714 707.657143c-3.657143 0-7.314286-1.828571-10.971428-3.657143l-34.742857-23.771429c-9.142857-5.485714-10.971429-16.457143-5.485715-25.6 5.485714-9.142857 16.457143-10.971429 25.6-5.485714l34.742857 23.771429c9.142857 5.485714 10.971429 16.457143 5.485715 25.6-3.657143 7.314286-9.142857 9.142857-14.628572 9.142857zM215.771429 828.342857c-5.485714 0-9.142857-1.828571-12.8-5.485714-7.314286-7.314286-7.314286-18.285714 0-25.6l64-64c7.314286-7.314286 18.285714-7.314286 25.6 0s7.314286 18.285714 0 25.6L228.571429 822.857143c-3.657143 3.657143-7.314286 5.485714-12.8 5.485714z" fill="#ffffff" p-id="1491"></path></svg>