<svg width="32" height="32" viewBox="0 0 32 32" fill="none" xmlns="http://www.w3.org/2000/svg">
<path fill-rule="evenodd" clip-rule="evenodd" d="M15.0629 7C10.6785 7 7 10.3251 7 14.5747C7 15.6287 7.51131 16.868 7.92251 17.7213C8.14105 18.1747 8.35856 18.5729 8.52118 18.8575L8.55861 18.9226L7.68757 21.7008C7.57679 22.0542 7.67033 22.4398 7.93068 22.7031C8.19102 22.9664 8.57556 23.0643 8.93012 22.9575L12.7419 21.8096C12.7593 21.8135 12.7844 21.8188 12.8155 21.8251C13.4283 21.9495 14 21.471 14 20.8458C14 20.3687 13.6603 19.9641 13.1944 19.8614C13.1891 19.8602 13.1841 19.8591 13.1794 19.8581C13.1051 19.8414 13.0456 19.8276 13.0052 19.818L12.9597 19.8072L12.9487 19.8046L12.9461 19.8039C12.7727 19.7615 12.5911 19.7663 12.4202 19.8178L10.1606 20.4983L10.6009 19.0939C10.6886 18.8142 10.649 18.5098 10.4928 18.2617L10.4904 18.2579L10.4791 18.2397C10.4687 18.2229 10.4528 18.1969 10.4321 18.1626C10.3907 18.094 10.3304 17.9925 10.2576 17.8651C10.1115 17.6094 9.91733 17.2537 9.72419 16.853C9.31205 15.9978 9 15.127 9 14.5747C9 11.5621 11.6458 9 15.0629 9C16.8232 9 18.3843 9.68406 19.4811 10.759C19.8535 11.1239 20.3346 11.3783 20.856 11.3783C21.5557 11.3783 21.9978 10.6459 21.5669 10.0947C20.0894 8.20515 17.7085 7 15.0629 7Z" fill="#3A495A"/>
<path d="M15 17.4828C15 19.9585 17.0147 21.9655 19.5 21.9655C20.026 21.9655 21 21.7104 21 21.7104L23.1 23L22.9508 20.3601C22.9508 20.3601 24 18.578 24 17.4828C24 15.007 21.9853 13 19.5 13C17.0147 13 15 15.007 15 17.4828Z" stroke="#3A495A" stroke-width="2" stroke-linejoin="round"/>
</svg> 