<svg width="30" height="30" viewBox="0 0 30 30" fill="none" xmlns="http://www.w3.org/2000/svg">
<path d="M19.3 14.3H15.7V10.7C15.7 10.5143 15.6263 10.3363 15.495 10.205C15.3637 10.0737 15.1857 10 15 10C14.8143 10 14.6363 10.0737 14.505 10.205C14.3737 10.3363 14.3 10.5143 14.3 10.7V14.3H10.7C10.6081 14.3 10.517 14.3181 10.4321 14.3533C10.3472 14.3885 10.27 14.44 10.205 14.505C10.14 14.57 10.0885 14.6472 10.0533 14.7321C10.0181 14.817 10 14.9081 10 15C10 15.0919 10.0181 15.183 10.0533 15.2679C10.0885 15.3528 10.14 15.43 10.205 15.495C10.27 15.56 10.3472 15.6115 10.4321 15.6467C10.517 15.6819 10.6081 15.7 10.7 15.7H14.3V19.3C14.3 19.3919 14.3181 19.483 14.3533 19.5679C14.3885 19.6528 14.44 19.73 14.505 19.795C14.57 19.86 14.6472 19.9115 14.7321 19.9467C14.817 19.9819 14.9081 20 15 20C15.0919 20 15.183 19.9819 15.2679 19.9467C15.3528 19.9115 15.43 19.86 15.495 19.795C15.56 19.73 15.6115 19.6528 15.6467 19.5679C15.6819 19.483 15.7 19.3919 15.7 19.3V15.7H19.3C19.4857 15.7 19.6637 15.6263 19.795 15.495C19.9262 15.3637 20 15.1857 20 15C20 14.8143 19.9262 14.6363 19.795 14.505C19.6637 14.3737 19.4857 14.3 19.3 14.3Z" fill="#3A495A"/>
<circle cx="15" cy="15" r="10" stroke="#3A495A" stroke-width="1.5" stroke-linejoin="round"/>
</svg>
