<svg width="20" height="20" viewBox="0 0 20 20" fill="none" xmlns="http://www.w3.org/2000/svg">
<path d="M15.251 15H12.7653V13.8639H15.251C15.3914 13.8637 15.5261 13.8116 15.6254 13.7191C15.7247 13.6265 15.7806 13.5011 15.7808 13.3702V4.62905C15.7806 4.49816 15.7247 4.37269 15.6254 4.28014C15.5261 4.18759 15.3914 4.13551 15.251 4.1353H7.74904C7.4866 4.1353 7.21918 4.4379 7.21918 4.73584V6.11338H6V4.73584C6 4.31485 6.17773 3.88533 6.48667 3.55798C6.82054 3.20276 7.28063 3 7.74904 3H15.251C15.7146 3.00041 16.159 3.17215 16.4869 3.47754C16.8148 3.78294 16.9993 4.19705 17 4.62905V13.3702C16.9996 13.8023 16.8151 14.2166 16.4872 14.5222C16.1593 14.8277 15.7147 14.9996 15.251 15Z" fill="#3A495A"/>
<path d="M12.2416 6L12.2408 6.33966L12.2425 6C12.6867 6.00113 13.114 6.1456 13.439 6.40451C13.764 6.66341 13.9625 7.01764 13.995 7.39632L14 7.50291V15.4978C13.9987 15.8775 13.8296 16.2428 13.5267 16.5205C13.2238 16.7982 12.8094 16.968 12.3663 16.9957L12.2416 17H4.7592C4.31468 16.9992 3.88692 16.8549 3.56161 16.596C3.23631 16.337 3.03749 15.9826 3.00499 15.6037L3 15.4971V7.50149C3.00134 7.12168 3.17049 6.75632 3.47357 6.47856C3.77665 6.2008 4.1913 6.03114 4.63449 6.00355L4.76003 6H12.2408H12.2416ZM12.2391 7.06589H4.76253C4.64098 7.0661 4.52344 7.103 4.43064 7.17009C4.33785 7.23719 4.27577 7.33015 4.25539 7.43256L4.2479 7.50362V15.495C4.24817 15.5989 4.29147 15.6995 4.37013 15.7788C4.4488 15.8582 4.55775 15.9111 4.67773 15.9284L4.76086 15.9341H12.2391C12.3607 15.9339 12.4782 15.897 12.571 15.8299C12.6638 15.7628 12.7259 15.6699 12.7463 15.5674L12.7529 15.4964V7.50504C12.7525 7.39989 12.7082 7.29832 12.6278 7.2187C12.5474 7.13907 12.4364 7.08664 12.3148 7.07087L12.2391 7.06589Z" fill="#3A495A"/>
<path d="M6.47495 12.5H10.525C10.8417 12.5 11 12.6668 11 13.0004V12.9996C11 13.3332 10.8417 13.5 10.525 13.5H6.47495C6.15832 13.5 6 13.3332 6 12.9996V13.0004C6 12.6668 6.15832 12.5 6.47495 12.5Z" fill="#3A495A"/>
<path d="M6.47495 9.5H10.525C10.8417 9.5 11 9.66678 11 10.0004V9.99965C11 10.3332 10.8417 10.5 10.525 10.5H6.47495C6.15832 10.5 6 10.3332 6 9.99965V10.0004C6 9.66678 6.15832 9.5 6.47495 9.5Z" fill="#3A495A"/>
</svg> 