<svg width="24" height="24" viewBox="0 0 24 24" fill="none" xmlns="http://www.w3.org/2000/svg">
<path d="M13 11L18 6" stroke="#5B6979" stroke-width="2" stroke-linecap="round" stroke-linejoin="round"/>
<path d="M13.1667 5H12V5C9.19108 5 7.78661 5 6.77772 5.67412C6.34096 5.96596 5.96596 6.34096 5.67412 6.77772C5 7.78661 5 9.19108 5 12V12C5 14.8089 5 16.2134 5.67412 17.2223C5.96596 17.659 6.34096 18.034 6.77772 18.3259C7.78661 19 9.19108 19 12 19V19C14.8089 19 16.2134 19 17.2223 18.3259C17.659 18.034 18.034 17.659 18.3259 17.2223C19 16.2134 19 14.8089 19 12V12V10.8333" stroke="#5B6979" stroke-width="2" stroke-linecap="round" stroke-linejoin="round"/>
</svg> 