<svg width="28" height="28" viewBox="0 0 28 28" fill="none" xmlns="http://www.w3.org/2000/svg">
<rect width="28" height="28" fill="white"/>
<path d="M18.75 11.3125C18.75 11.6606 18.6117 11.9944 18.3656 12.2406C18.1194 12.4867 17.7856 12.625 17.4375 12.625C17.0894 12.625 16.7556 12.4867 16.5094 12.2406C16.2633 11.9944 16.125 11.6606 16.125 11.3125C16.125 10.9644 16.2633 10.6306 16.5094 10.3844C16.7556 10.1383 17.0894 10 17.4375 10C17.7856 10 18.1194 10.1383 18.3656 10.3844C18.6117 10.6306 18.75 10.9644 18.75 11.3125Z" fill="#5B6979"/>
<path d="M10.875 11.3125C10.875 11.6606 10.7367 11.9944 10.4906 12.2406C10.2444 12.4867 9.9106 12.625 9.5625 12.625C9.2144 12.625 8.88056 12.4867 8.63442 12.2406C8.38828 11.9944 8.25 11.6606 8.25 11.3125C8.25 10.9644 8.38828 10.6306 8.63442 10.3844C8.88056 10.1383 9.2144 10 9.5625 10C9.9106 10 10.2444 10.1383 10.4906 10.3844C10.7367 10.6306 10.875 10.9644 10.875 11.3125Z" fill="#5B6979"/>
<path d="M13.4997 19.6263C11.0839 19.6263 9.12539 17.6678 9.12539 15.252H17.874C17.874 17.6678 15.9155 19.6263 13.4997 19.6263Z" fill="#5B6979"/>
<circle cx="13.5" cy="13.5" r="10.5" stroke="#5B6979" stroke-width="2"/>
</svg> 