<svg width="26" height="26" viewBox="0 0 26 26" fill="none" xmlns="http://www.w3.org/2000/svg">
<path d="M16.5 15H9.5C8.11929 15 7 16.1193 7 17.5C7 18.8807 8.11929 20 9.5 20H16.5C17.8807 20 19 18.8807 19 17.5C19 16.1193 17.8807 15 16.5 15Z" stroke="#666666" stroke-width="2" stroke-linejoin="round"/>
<path d="M10 9.00008V8.99992C9.99997 8.60599 10.0775 8.21591 10.2283 7.85194C10.379 7.48798 10.6 7.15727 10.8786 6.8787C11.1571 6.60012 11.4879 6.37914 11.8519 6.22837C12.2159 6.0776 12.606 6 13 6C13.394 6 13.7841 6.0776 14.1481 6.22837C14.5121 6.37914 14.8429 6.60012 15.1214 6.8787C15.4 7.15727 15.621 7.48799 15.7717 7.85194C15.9225 8.2159 16 8.60599 16 8.99992V9.00008C16 9.39401 15.9225 9.7841 15.7717 10.1481C15.621 10.512 15.4 10.8427 15.1214 11.1213C14.8429 11.3999 14.5121 11.6209 14.1481 11.7716C13.7841 11.9224 13.394 12 13 12C12.606 12 12.2159 11.9224 11.8519 11.7716L11.4692 12.6955L11.8519 11.7716C11.4879 11.6209 11.1571 11.3999 10.8786 11.1213C10.6 10.8427 10.379 10.512 10.2283 10.1481C10.0775 9.78409 9.99997 9.39401 10 9.00008Z" stroke="#666666" stroke-width="2"/>
</svg> 