<svg width="26" height="26" viewBox="0 0 26 26" fill="none" xmlns="http://www.w3.org/2000/svg">
<path d="M19 11.3333C18.3765 8.29574 15.5077 6 12.0629 6C8.16215 6 5 8.9436 5 12.5747C5 14.1811 6.6467 16.7948 6.6467 16.7948L5.64177 20L9.70857 18.7753C9.70857 18.7753 11.2374 19.1494 12.0629 19.1494C12.5014 19.1494 12.9306 19.1122 13.347 19.041" stroke="#666666" stroke-width="2" stroke-linecap="round" stroke-linejoin="round"/>
<path d="M12 15.4828C12 17.9585 14.0147 19.9655 16.5 19.9655C17.026 19.9655 18 19.7104 18 19.7104L20.1 21L19.9508 18.3601C19.9508 18.3601 21 16.578 21 15.4828C21 13.007 18.9853 11 16.5 11C14.0147 11 12 13.007 12 15.4828Z" stroke="#666666" stroke-width="2" stroke-linejoin="round"/>
</svg> 