<svg width="32" height="32" viewBox="0 0 32 32" fill="none" xmlns="http://www.w3.org/2000/svg">
<path d="M17.042 18.8286C15.2342 20.4154 15.782 17.6314 15.8642 17.2417C15.9464 16.8519 17.1241 14.4577 16.2613 14.054C15.3985 13.6504 12.7417 15.6409 12.7417 15.6409C12.7417 15.6409 12.3034 15.9611 12.3445 16.0446C12.6321 16.5596 13.9058 15.6409 13.9058 15.6409C13.9058 15.6409 14.344 15.279 14.3029 15.6409C13.9192 17.209 13.6582 18.8055 13.5223 20.4154C13.714 21.4733 15.3575 21.0279 16.6448 19.622C17.9322 18.2161 17.042 18.8286 17.042 18.8286Z" fill="#3A495A"/>
<path d="M15.7602 12.9978C15.9568 13.0085 16.1537 12.9804 16.3395 12.915C16.5254 12.8496 16.6965 12.7483 16.8432 12.6168C16.9898 12.4853 17.1091 12.3262 17.1943 12.1486C17.2795 11.971 17.3289 11.7783 17.3396 11.5816C17.3503 11.385 17.3222 11.1881 17.2568 11.0023C17.1914 10.8164 17.0901 10.6453 16.9586 10.4986C16.8271 10.352 16.668 10.2327 16.4904 10.1475C16.3128 10.0623 16.1201 10.0129 15.9234 10.0022C15.7267 9.9915 15.5299 10.0196 15.344 10.085C15.1582 10.1504 14.9871 10.2517 14.8404 10.3832C14.6938 10.5147 14.5745 10.6738 14.4893 10.8514C14.4041 11.029 14.3547 11.2217 14.344 11.4184C14.3333 11.615 14.3614 11.8119 14.4268 11.9977C14.4922 12.1836 14.5935 12.3547 14.725 12.5014C14.8565 12.648 15.0156 12.7673 15.1932 12.8525C15.3708 12.9377 15.5635 12.9871 15.7602 12.9978Z" fill="#3A495A"/>
<path d="M17.7002 18.8286C15.8924 20.4154 16.4402 17.6314 16.5224 17.2417C16.6046 16.8519 17.7823 14.4577 16.9195 14.054C16.0567 13.6504 13.3999 15.6409 13.3999 15.6409C13.3999 15.6409 12.9616 15.9611 13.0027 16.0446C13.2903 16.5596 14.564 15.6409 14.564 15.6409C14.564 15.6409 15.0022 15.279 14.9611 15.6409C14.5774 17.209 14.3164 18.8055 14.1805 20.4154C14.3722 21.4733 16.0157 21.0279 17.303 19.622C18.5904 18.2161 17.7002 18.8286 17.7002 18.8286Z" fill="#3A495A"/>
<path d="M16.4184 12.9978C16.615 13.0085 16.8119 12.9804 16.9977 12.915C17.1836 12.8496 17.3547 12.7483 17.5014 12.6168C17.648 12.4853 17.7673 12.3262 17.8525 12.1486C17.9377 11.971 17.9871 11.7783 17.9978 11.5816C18.0085 11.385 17.9804 11.1881 17.915 11.0023C17.8496 10.8164 17.7483 10.6453 17.6168 10.4986C17.4853 10.352 17.3262 10.2327 17.1486 10.1475C16.971 10.0623 16.7783 10.0129 16.5816 10.0022C16.385 9.9915 16.1881 10.0196 16.0023 10.085C15.8164 10.1504 15.6453 10.2517 15.4986 10.3832C15.352 10.5147 15.2327 10.6738 15.1475 10.8514C15.0623 11.029 15.0129 11.2217 15.0022 11.4184C14.9915 11.615 15.0196 11.8119 15.085 11.9977C15.1504 12.1836 15.2517 12.3547 15.3832 12.5014C15.5147 12.648 15.6738 12.7673 15.8514 12.8525C16.029 12.9377 16.2217 12.9871 16.4184 12.9978Z" fill="#3A495A"/>
<circle cx="15.5" cy="15.5" r="9.5" stroke="#3A495A" stroke-width="2" stroke-linejoin="round"/>
</svg> 