<svg t="1704001559003" class="icon" viewBox="0 0 1024 1024" version="1.1" xmlns="http://www.w3.org/2000/svg" p-id="1563" width="200" height="200"><path d="M508.708571 929.097143c-76.617143 0-138.971429-62.354286-138.971428-138.971429v-63.451428c-93.074286-54.491429-145.554286-157.622857-134.217143-266.057143 13.165714-127.085714 115.017143-229.668571 241.92-243.748572 79.36-8.777143 155.428571 15.542857 214.491429 68.205715 58.148571 52.114286 91.428571 126.72 91.428571 204.8 0 98.011429-51.748571 187.611429-135.68 236.8v63.451428c-0.182857 76.617143-62.537143 138.971429-138.971429 138.971429z m-102.4-204.068572v65.28c0 56.502857 45.897143 102.4 102.4 102.4s102.4-45.897143 102.4-102.4v-65.28c-0.548571-1.097143-0.914286-2.377143-1.28-3.657142-2.011429-8.228571 1.828571-16.64 9.325715-20.662858 78.811429-41.325714 127.817143-122.148571 127.817143-210.834285 0-67.657143-28.891429-132.388571-79.36-177.554286-51.017143-45.714286-117.028571-66.742857-185.965715-59.062857-109.897143 12.251429-198.034286 100.937143-209.554285 211.017143a237.750857 237.750857 0 0 0 126.537142 236.434285c7.497143 3.84 11.337143 12.434286 9.325715 20.662858-0.731429 1.28-1.097143 2.377143-1.645715 3.657142z" fill="#ffffff" p-id="1564"></path><path d="M623.725714 733.805714H393.508571c-10.057143 0-18.285714-8.228571-18.285714-18.285714s8.228571-18.285714 18.285714-18.285714h230.217143c10.057143 0 18.285714 8.228571 18.285715 18.285714s-8.228571 18.285714-18.285715 18.285714zM623.725714 787.017143H393.508571a6.948571 6.948571 0 1 1 0-13.897143h230.217143a6.948571 6.948571 0 1 1 0 13.897143z" fill="#ffffff" p-id="1565"></path><path d="M508.708571 130.56m-35.657142 0a35.657143 35.657143 0 1 0 71.314285 0 35.657143 35.657143 0 1 0-71.314285 0Z" fill="#ffffff" p-id="1566"></path><path d="M254.902857 238.445714m-35.657143 0a35.657143 35.657143 0 1 0 71.314286 0 35.657143 35.657143 0 1 0-71.314286 0Z" fill="#ffffff" p-id="1567"></path><path d="M151.771429 494.08m-35.657143 0a35.657143 35.657143 0 1 0 71.314285 0 35.657143 35.657143 0 1 0-71.314285 0Z" fill="#ffffff" p-id="1568"></path><path d="M872.228571 487.497143m-35.657142 0a35.657143 35.657143 0 1 0 71.314285 0 35.657143 35.657143 0 1 0-71.314285 0Z" fill="#ffffff" p-id="1569"></path><path d="M764.342857 233.691429m-35.657143 0a35.657143 35.657143 0 1 0 71.314286 0 35.657143 35.657143 0 1 0-71.314286 0Z" fill="#ffffff" p-id="1570"></path><path d="M513.28 590.628571c-21.76 0-42.24-8.411429-57.6-23.954285s-23.954286-35.84-23.954286-57.6 8.411429-42.24 23.954286-57.6c15.36-15.36 35.84-23.954286 57.6-23.954286s42.24 8.411429 57.6 23.954286c15.36 15.36 23.954286 35.84 23.954286 57.6s-8.411429 42.24-23.954286 57.6c-15.36 15.542857-35.84 23.954286-57.6 23.954285z m0-135.68c-14.445714 0-27.977143 5.668571-38.217143 15.908572-10.24 10.24-15.908571 23.771429-15.908571 38.217143s5.668571 27.977143 15.908571 38.217143c20.48 20.48 56.137143 20.48 76.617143 0 10.24-10.24 15.908571-23.771429 15.908571-38.217143s-5.668571-27.977143-15.908571-38.217143c-10.422857-10.24-23.954286-15.908571-38.4-15.908572z" fill="#ffffff" p-id="1571"></path><path d="M499.565714 578.925714h27.428572v129.645715h-27.428572z" fill="#ffffff" p-id="1572"></path></svg>