<svg width="32" height="32" viewBox="0 0 32 32" fill="none" xmlns="http://www.w3.org/2000/svg">
<path d="M21 12.25V11.5C21 9.84315 19.6569 8.5 18 8.5H11C9.34315 8.5 8 9.84315 8 11.5V20.5C8 22.1569 9.34315 23.5 11 23.5H18C19.6569 23.5 21 22.1569 21 20.5V19.75" stroke="#3A495A" stroke-width="2" stroke-linejoin="round"/>
<path d="M21.3661 18.7817C21.5221 18.9336 21.717 19 21.9218 19C22.1265 19 22.3215 18.9241 22.4775 18.7817L24.7685 16.5516L24.7782 16.5421L24.827 16.4947C24.8367 16.4852 24.8465 16.4757 24.8465 16.4662C24.8562 16.4567 24.866 16.4472 24.866 16.4377C24.8757 16.4282 24.8854 16.4187 24.8854 16.3998C24.8952 16.3903 24.8952 16.3808 24.9049 16.3713C24.9147 16.3618 24.9147 16.3428 24.9244 16.3333C24.9342 16.3238 24.9342 16.3144 24.9439 16.3049C24.9537 16.2954 24.9537 16.2764 24.9537 16.2669C24.9537 16.2574 24.9634 16.2479 24.9634 16.2289C24.9634 16.2195 24.9732 16.2005 24.9732 16.191C24.9732 16.1815 24.9829 16.172 24.9829 16.153C24.9829 16.134 24.9829 16.1246 24.9927 16.1056V16.0771C25.0024 16.0297 25.0024 15.9727 24.9927 15.9253V15.8968C24.9927 15.8778 24.9927 15.8683 24.9829 15.8493C24.9829 15.8399 24.9732 15.8304 24.9732 15.8114C24.9732 15.8019 24.9634 15.7829 24.9634 15.7734C24.9634 15.7639 24.9537 15.7544 24.9537 15.7355C24.9537 15.726 24.9439 15.707 24.9439 15.6975C24.9439 15.688 24.9342 15.6785 24.9244 15.669C24.9147 15.6595 24.9147 15.6406 24.9049 15.6311C24.8952 15.6216 24.8952 15.6121 24.8854 15.6026C24.8757 15.5931 24.8757 15.5836 24.866 15.5647C24.8562 15.5552 24.8465 15.5457 24.8465 15.5362C24.8367 15.5267 24.8367 15.5172 24.827 15.5077C24.8172 15.4887 24.7977 15.4698 24.7782 15.4603L24.7685 15.4508L22.4775 13.2206C22.1752 12.9265 21.678 12.9265 21.3758 13.2206C21.0736 13.5148 21.0736 13.9988 21.3758 14.293L22.3312 15.223H15.7799C15.351 15.223 15 15.5646 15 15.9822C15 16.3998 15.351 16.7414 15.7799 16.7414H22.3312L21.3758 17.6714C21.0639 18.0036 21.0639 18.4781 21.3661 18.7817Z" fill="#3A495A"/>
</svg> 