<svg width="32" height="32" viewBox="0 0 32 32" fill="none" xmlns="http://www.w3.org/2000/svg">
<path d="M8 15C8 12.1997 8 10.7996 8.54497 9.73005C9.02433 8.78924 9.78924 8.02433 10.73 7.54497C11.7996 7 13.1997 7 16 7V7C18.8003 7 20.2004 7 21.27 7.54497C22.2108 8.02433 22.9757 8.78924 23.455 9.73005C24 10.7996 24 12.1997 24 15V15C24 17.8003 24 19.2004 23.455 20.27C22.9757 21.2108 22.2108 21.9757 21.27 22.455C20.2004 23 18.8003 23 16 23V23C13.1997 23 11.7996 23 10.73 22.455C9.78924 21.9757 9.02433 21.2108 8.54497 20.27C8 19.2004 8 17.8003 8 15V15Z" stroke="#3A495A" stroke-width="2" stroke-linejoin="round"/>
<path d="M16 19.5C16.5523 19.5 17 19.0523 17 18.5C17 17.9477 16.5523 17.5 16 17.5V19.5ZM16 17.5C14.6193 17.5 13.5 16.3807 13.5 15H11.5C11.5 17.4853 13.5147 19.5 16 19.5V17.5ZM13.5 15C13.5 13.6193 14.6193 12.5 16 12.5V10.5C13.5147 10.5 11.5 12.5147 11.5 15H13.5ZM16 12.5C17.3807 12.5 18.5 13.6193 18.5 15H20.5C20.5 12.5147 18.4853 10.5 16 10.5V12.5Z" fill="#3A495A"/>
<path d="M19.8073 17.6313C19.6474 17.8232 19.3526 17.8232 19.1927 17.6313L17.5467 15.6561C17.3296 15.3955 17.5149 15 17.854 15L21.146 15C21.4851 15 21.6704 15.3955 21.4533 15.6561L19.8073 17.6313Z" fill="#3A495A"/>
</svg> 