<svg width="18" height="18" viewBox="0 0 18 18" fill="none" xmlns="http://www.w3.org/2000/svg">
<path d="M16.7512 6.51699H15.7327V3.98682C15.7327 2.98046 14.9252 2.15994 13.9349 2.15994H11.4449V1.125H13.9349C15.4879 1.125 16.7512 2.40867 16.7512 3.98682V6.51699ZM6.55788 16.875H4.06793C2.51487 16.875 1.25161 15.5913 1.25161 14.0132V11.4801H2.2701V14.0132C2.2701 15.0195 3.07757 15.8401 4.06793 15.8401H6.55788V16.875ZM2.2701 6.51699H1.25161V3.98682C1.25161 2.40867 2.51487 1.125 4.06793 1.125H6.55788V2.15994H4.06793C3.07757 2.15994 2.2701 2.98046 2.2701 3.98682V6.51699ZM13.9349 16.875H11.4449V15.8401H13.9349C14.9252 15.8401 15.7327 15.0195 15.7327 14.0132V11.4801H16.7512V14.0132C16.7512 15.5913 15.4879 16.875 13.9349 16.875ZM1.125 8.47252H16.875V9.50747H1.125V8.47252Z" fill="white"/>
</svg>
