<svg width="24" height="24" viewBox="0 0 24 24" fill="none" xmlns="http://www.w3.org/2000/svg">
<path d="M10.9999 18C7.14105 18 4 14.8589 4 11C4 7.14114 7.14105 4 10.9999 4C14.8588 4 18 7.14116 18 11C18 14.8588 14.8588 18 10.9999 18Z" stroke="#BFC4C8" stroke-width="2"/>
<path d="M19.8989 21C19.617 21 19.3353 20.8925 19.1202 20.6775L15.3225 16.8798C14.8925 16.4497 14.8925 15.7525 15.3225 15.3224C15.7526 14.8925 16.4497 14.8925 16.8798 15.3224L20.6775 19.1202C21.1075 19.5502 21.1075 20.2474 20.6775 20.6775C20.4624 20.8925 20.1807 21 19.8989 21Z" fill="#BFC4C8"/>
</svg> 