<svg width="40" height="40" viewBox="0 0 40 40" fill="none" xmlns="http://www.w3.org/2000/svg">
<path d="M19.4753 28V28C19.2941 28 19.1511 27.8511 18.9984 27.7535L15.7186 25.6573C14.038 24.5607 13 22.7664 13 20.8224V14.7414C13 14.4424 13.1977 14.243 13.4943 14.243C15.6692 14.243 17.7452 13.4953 19.1293 12.1495C19.327 11.9502 19.6236 11.9502 19.8213 12.1495C21.2053 13.4953 23.2814 14.243 25.4563 14.243C25.7034 14.243 25.9506 14.4424 25.9506 14.7414L26 16.7352L25.9506 20.8224C25.9506 22.7664 24.962 24.5607 23.2319 25.6573L19.9521 27.7535C19.7995 27.8511 19.6565 28 19.4753 28V28Z" stroke="#3A495A" stroke-width="2" stroke-linejoin="round"/>
<path d="M17 20.2857L18.6667 22L22 19" stroke="#3A495A" stroke-width="2" stroke-linecap="round" stroke-linejoin="round"/>
</svg> 