<svg width="40" height="40" viewBox="0 0 40 40" fill="none" xmlns="http://www.w3.org/2000/svg">
<circle cx="20" cy="20" r="2" stroke="#3A495A" stroke-width="2" stroke-linejoin="round"/>
<path d="M17.4245 14.029C17.7111 12.8388 18.7758 12 20 12V12C21.2242 12 22.2889 12.8388 22.5755 14.029L22.8329 15.0977C23.1362 16.3574 24.1121 17.3455 25.3679 17.6646L26.1623 17.8664C27.2432 18.1411 28 19.1141 28 20.2294V20.2294C28 21.2853 27.3204 22.2212 26.3163 22.5479L25.1555 22.9256C24.0131 23.2973 23.1335 24.2172 22.8132 25.375L22.6434 25.9886C22.3146 27.1771 21.2331 28 20 28V28C18.7669 28 17.6854 27.1771 17.3566 25.9886L17.1868 25.375C16.8665 24.2172 15.9869 23.2973 14.8445 22.9256L13.6837 22.5479C12.6796 22.2212 12 21.2853 12 20.2294V20.2294C12 19.1141 12.7568 18.1411 13.8377 17.8664L14.6321 17.6646C15.8879 17.3455 16.8638 16.3574 17.1671 15.0977L17.4245 14.029Z" stroke="#3A495A" stroke-width="2" stroke-linejoin="round"/>
</svg> 