<svg width="32" height="32" viewBox="0 0 32 32" fill="none" xmlns="http://www.w3.org/2000/svg">
<circle cx="16" cy="11.5" r="3.5" stroke="#3A495A" stroke-width="2" stroke-linejoin="round"/>
<path d="M19 20C19.5523 20 20 19.5523 20 19C20 18.4477 19.5523 18 19 18V20ZM18 26C18.5523 26 19 25.5523 19 25C19 24.4477 18.5523 24 18 24V26ZM12 20H19V18H12V20ZM18 24H12V26H18V24ZM19 18H16.3333V20H19V18ZM12 24C10.8954 24 10 23.1046 10 22H8C8 24.2091 9.79086 26 12 26V24ZM12 18C9.79086 18 8 19.7909 8 22H10C10 20.8954 10.8954 20 12 20V18Z" fill="#3A495A"/>
<path d="M26 20L21 25" stroke="#3A495A" stroke-width="2" stroke-linejoin="round"/>
<path d="M26 25L21 20" stroke="#3A495A" stroke-width="2" stroke-linejoin="round"/>
</svg> 