<svg width="40" height="40" viewBox="0 0 40 40" fill="none" xmlns="http://www.w3.org/2000/svg">
  <g clip-path="url(#clip0_592_1941)">
    <circle cx="20" cy="20" r="20" fill="#FF3D00"/>
    <path d="M22 24C22.5523 24 23 23.5523 23 23C23 22.4477 22.5523 22 22 22V24ZM20.4286 30C20.9809 30 21.4286 29.5523 21.4286 29C21.4286 28.4477 20.9809 28 20.4286 28V30ZM14 24H22V22H14V24ZM20.4286 28H14V30H20.4286V28ZM22 22H18.3333V24H22V22ZM14 28C12.8954 28 12 27.1046 12 26H10C10 28.2091 11.7909 30 14 30V28ZM14 22C11.7909 22 10 23.7909 10 26H12C12 24.8954 12.8954 24 14 24V22Z" fill="white"/>
    <path d="M24 13.9999V14.0001C24 14.5253 23.8966 15.0454 23.6956 15.5307C23.4946 16.016 23.2 16.457 22.8286 16.8284C22.4571 17.1998 22.0162 17.4945 21.5308 17.6955C21.0455 17.8965 20.5253 18 20 18C19.4747 18 18.9545 17.8965 18.4692 17.6955C17.9838 17.4945 17.5429 17.1998 17.1714 16.8284C16.8 16.457 16.5054 16.016 16.3044 15.5307C16.1034 15.0454 16 14.5253 16 14.0001V13.9999C16 13.4747 16.1034 12.9546 16.3044 12.4693C16.5054 11.984 16.8 11.543 17.1714 11.1716C17.5429 10.8002 17.9838 10.5055 18.4692 10.3045C18.9545 10.1035 19.4747 10 20 10C20.5253 10 21.0455 10.1035 21.5308 10.3045C22.0162 10.5055 22.4571 10.8002 22.8286 11.1716C23.2 11.543 23.4946 11.984 23.6956 12.4693C23.8966 12.9546 24 13.4747 24 13.9999Z" stroke="white" stroke-width="2"/>
    <path d="M23 26C23 25.4477 23.4477 25 24 25H30C30.5523 25 31 25.4477 31 26C31 26.5523 30.5523 27 30 27H24C23.4477 27 23 26.5523 23 26Z" fill="white"/>
    <path d="M27 22C27.5523 22 28 22.4477 28 23V29C28 29.5523 27.5523 30 27 30C26.4477 30 26 29.5523 26 29V23C26 22.4477 26.4477 22 27 22Z" fill="white"/>
  </g>
  <defs>
    <clipPath id="clip0_592_1941">
      <rect width="40" height="40" fill="white"/>
    </clipPath>
  </defs>
</svg>