<svg width="40" height="40" viewBox="0 0 40 40" fill="none" xmlns="http://www.w3.org/2000/svg">
<g clip-path="url(#clip0_631_2183)">
<circle cx="20" cy="20" r="20" fill="#00C013"/>
<rect width="40" height="40" rx="20" fill="#00A3FF"/>
<path d="M23 24C23.5523 24 24 23.5523 24 23C24 22.4477 23.5523 22 23 22V24ZM19 30C19.5523 30 20 29.5523 20 29C20 28.4477 19.5523 28 19 28V30ZM14 24H23V22H14V24ZM19 28H14V30H19V28ZM23 22H18.3333V24H23V22ZM14 28C12.8954 28 12 27.1046 12 26H10C10 28.2091 11.7909 30 14 30V28ZM14 22C11.7909 22 10 23.7909 10 26H12C12 24.8954 12.8954 24 14 24V22Z" fill="white"/>
<path d="M24 13.9999V14.0001C24 14.5253 23.8966 15.0454 23.6956 15.5307C23.4946 16.016 23.2 16.457 22.8286 16.8284C22.4571 17.1998 22.0162 17.4945 21.5308 17.6955C21.0455 17.8965 20.5253 18 20 18C19.4747 18 18.9545 17.8965 18.4692 17.6955C17.9838 17.4945 17.5429 17.1998 17.1714 16.8284C16.8 16.457 16.5054 16.016 16.3044 15.5307C16.1034 15.0454 16 14.5253 16 14.0001V13.9999C16 13.4747 16.1034 12.9546 16.3044 12.4693C16.5054 11.984 16.8 11.543 17.1714 11.1716C17.5429 10.8002 17.9838 10.5055 18.4692 10.3045C18.9545 10.1035 19.4747 10 20 10C20.5253 10 21.0455 10.1035 21.5308 10.3045C22.0162 10.5055 22.4571 10.8002 22.8286 11.1716C23.2 11.543 23.4946 11.984 23.6956 12.4693C23.8966 12.9546 24 13.4747 24 13.9999Z" stroke="white" stroke-width="2"/>
<path d="M23.8204 30.0711C23.4299 29.6805 23.4299 29.0474 23.8204 28.6569L28.7701 23.7071C29.1607 23.3166 29.7938 23.3166 30.1843 23.7071C30.5749 24.0976 30.5749 24.7308 30.1843 25.1213L25.2346 30.0711C24.8441 30.4616 24.2109 30.4616 23.8204 30.0711Z" fill="white"/>
<path d="M21.7071 26.5355C22.0976 26.145 22.7308 26.145 23.1213 26.5355L25.2426 28.6568C25.6332 29.0474 25.6332 29.6805 25.2426 30.071C24.8521 30.4616 24.219 30.4616 23.8284 30.071L21.7071 27.9497C21.3166 27.5592 21.3166 26.926 21.7071 26.5355Z" fill="white"/>
</g>
<defs>
<clipPath id="clip0_631_2183">
<rect width="40" height="40" fill="white"/>
</clipPath>
</defs>
</svg> 