<svg width="18" height="18" viewBox="0 0 18 18" fill="none" xmlns="http://www.w3.org/2000/svg">
<path d="M9 7.5C10.6659 7.5 12.0288 6.09375 12.0288 4.375C12.0288 2.65625 10.6659 1.25 9 1.25C7.33413 1.25 5.97115 2.65625 5.97115 4.375C5.97115 6.09375 7.33413 7.5 9 7.5ZM13.2404 13.125V11.25C13.2404 10.9062 13.513 10.625 13.8462 10.625C14.1793 10.625 14.4519 10.9062 14.4519 11.25V13.125H16.2692C16.6024 13.125 16.875 13.4062 16.875 13.75C16.875 14.0938 16.6024 14.375 16.2692 14.375H14.4519V16.25C14.4519 16.5938 14.1793 16.875 13.8462 16.875C13.513 16.875 13.2404 16.5938 13.2404 16.25V14.375H11.4231C11.0899 14.375 10.8173 14.0938 10.8173 13.75C10.8173 13.4062 11.0899 13.125 11.4231 13.125H13.2404ZM12.9375 8.34375C13.1192 8.46875 13.2404 8.65625 13.2404 8.875C13.2404 9.21875 12.9678 9.5 12.6346 9.5C12.5135 9.5 12.4226 9.46875 12.3317 9.40625C11.5139 8.96875 10.6053 8.75 9.60577 8.75H8.39423C5.0625 8.75 2.33654 11.5625 2.33654 15C2.33654 15.3438 2.60913 15.625 2.94231 15.625H10.2115C10.5447 15.625 10.8173 15.9062 10.8173 16.25C10.8173 16.5938 10.5447 16.875 10.2115 16.875H2.94231C1.94279 16.875 1.125 16.0312 1.125 15C1.125 11.5938 3.33606 8.71875 6.3649 7.8125C5.39567 7 4.75962 5.78125 4.75962 4.375C4.75962 1.96875 6.66779 0 9 0C11.3322 0 13.2404 1.96875 13.2404 4.375C13.2404 5.75 12.6043 7 11.6351 7.8125C12.0894 7.9375 12.5437 8.125 12.9375 8.34375Z" fill="white"/>
</svg>
