<svg width="60" height="60" viewBox="0 0 60 60" fill="none" xmlns="http://www.w3.org/2000/svg">
<path fill-rule="evenodd" clip-rule="evenodd" d="M7.14233 9.99651C7.14233 6.84044 9.70084 4.28194 12.8569 4.28194H37.4555C39.0755 4.28194 40.6194 4.96952 41.7031 6.17366L51.3911 16.9382C52.3355 17.9875 52.8581 19.3493 52.8581 20.761V49.9976C52.8581 53.1537 50.2996 55.7122 47.1435 55.7122H12.8569C9.70083 55.7122 7.14233 53.1537 7.14233 49.9976V9.99651Z" fill="#EFF0F2"/>
<g opacity="0.6">
<path fill-rule="evenodd" clip-rule="evenodd" d="M40.0007 5.94318C40.0007 5.35894 40.7212 5.08246 41.112 5.51673L51.9008 17.5042C52.27 17.9144 51.9788 18.5681 51.4269 18.5681H41.9132C40.857 18.5681 40.0007 17.7119 40.0007 16.6557V5.94318Z" fill="white"/>
</g>
<path opacity="0.4" d="M28.6995 31.1232C29.2218 30.6363 29.6047 30.2015 29.8484 29.819C30.1095 29.419 30.2401 28.9234 30.2401 28.3321C30.2401 27.4801 30.0225 26.8975 29.5873 26.5845C29.1521 26.2541 28.3775 26.0889 27.2635 26.0889C26.2539 26.0889 25.2617 26.2454 24.2869 26.5584V23.3761C25.575 23.0283 26.7935 22.8544 27.9423 22.8544C29.4742 22.8544 30.6926 23.011 31.5978 23.324C32.5204 23.637 33.1992 24.1674 33.6344 24.9151C34.0696 25.6629 34.2872 26.6801 34.2872 27.967C34.2872 28.8364 34.1479 29.5842 33.8694 30.2102C33.6083 30.8362 33.2863 31.3405 32.9033 31.7231C32.5204 32.0883 32.0417 32.4796 31.4673 32.8969C30.9276 33.2795 30.5273 33.6186 30.2662 33.9142C30.0225 34.2098 29.9006 34.5489 29.9006 34.9315V35.3227H26.8718V34.775C26.8718 33.9229 27.0285 33.2447 27.3418 32.7404C27.6551 32.2187 28.1077 31.6796 28.6995 31.1232ZM28.4384 36.7835C29.1347 36.7835 29.6395 36.8443 29.9528 36.9661C30.2662 37.0704 30.4751 37.2791 30.5795 37.5921C30.7013 37.9051 30.7623 38.4094 30.7623 39.105C30.7623 39.8005 30.7013 40.3048 30.5795 40.6179C30.4751 40.9309 30.2662 41.1482 29.9528 41.27C29.6395 41.3743 29.1347 41.4265 28.4384 41.4265C27.7422 41.4265 27.2374 41.3743 26.924 41.27C26.6281 41.1482 26.4279 40.9309 26.3235 40.6179C26.219 40.3048 26.1668 39.8005 26.1668 39.105C26.1668 38.4094 26.219 37.9051 26.3235 37.5921C26.4279 37.2791 26.6281 37.0704 26.924 36.9661C27.2374 36.8443 27.7422 36.7835 28.4384 36.7835Z" fill="#5B6979"/>
</svg> 